<svg width="40" height="40" viewBox="0 0 40 40" fill="none" xmlns="http://www.w3.org/2000/svg">
<path d="M28.3475 34.9917L11.6809 35.0075C8.0142 35.0109 5.0117 32.0142 5.00754 28.3475L4.9917 11.6809C4.98837 8.0142 7.98504 5.0117 11.6517 5.00754L28.3184 4.9917C31.985 4.98837 34.9875 7.98504 34.9917 11.6517L35.0075 28.3184C35.0117 31.9859 32.0142 34.9884 28.3475 34.9917Z" fill="url(#paint0_radial_103_677)"/>
<path d="M28.3475 34.9917L11.6809 35.0075C8.0142 35.0109 5.0117 32.0142 5.00754 28.3475L4.9917 11.6809C4.98837 8.0142 7.98504 5.0117 11.6517 5.00754L28.3184 4.9917C31.985 4.98837 34.9875 7.98504 34.9917 11.6517L35.0075 28.3184C35.0117 31.9859 32.0142 34.9884 28.3475 34.9917Z" fill="url(#paint1_radial_103_677)"/>
<path d="M20.0001 25.8334C16.7842 25.8334 14.1667 23.2167 14.1667 20.0001C14.1667 16.7834 16.7842 14.1667 20.0001 14.1667C23.2159 14.1667 25.8334 16.7834 25.8334 20.0001C25.8334 23.2167 23.2159 25.8334 20.0001 25.8334ZM20.0001 15.8334C17.7026 15.8334 15.8334 17.7026 15.8334 20.0001C15.8334 22.2976 17.7026 24.1667 20.0001 24.1667C22.2976 24.1667 24.1667 22.2976 24.1667 20.0001C24.1667 17.7026 22.2976 15.8334 20.0001 15.8334Z" fill="white"/>
<path d="M26.25 15C26.9404 15 27.5 14.4404 27.5 13.75C27.5 13.0596 26.9404 12.5 26.25 12.5C25.5596 12.5 25 13.0596 25 13.75C25 14.4404 25.5596 15 26.25 15Z" fill="white"/>
<path d="M25.0001 30.8334H15.0001C11.7842 30.8334 9.16675 28.2167 9.16675 25.0001V15.0001C9.16675 11.7834 11.7842 9.16675 15.0001 9.16675H25.0001C28.2159 9.16675 30.8334 11.7834 30.8334 15.0001V25.0001C30.8334 28.2167 28.2159 30.8334 25.0001 30.8334ZM15.0001 10.8334C12.7026 10.8334 10.8334 12.7026 10.8334 15.0001V25.0001C10.8334 27.2976 12.7026 29.1667 15.0001 29.1667H25.0001C27.2976 29.1667 29.1667 27.2976 29.1667 25.0001V15.0001C29.1667 12.7026 27.2976 10.8334 25.0001 10.8334H15.0001Z" fill="white"/>
<defs>
<radialGradient id="paint0_radial_103_677" cx="0" cy="0" r="1" gradientUnits="userSpaceOnUse" gradientTransform="translate(16.15 35.0292) scale(37.4158 37.4158)">
<stop stop-color="#FFDD55"/>
<stop offset="0.328" stop-color="#FF543F"/>
<stop offset="0.348" stop-color="#FC5245"/>
<stop offset="0.504" stop-color="#E64771"/>
<stop offset="0.643" stop-color="#D53E91"/>
<stop offset="0.761" stop-color="#CC39A4"/>
<stop offset="0.841" stop-color="#C837AB"/>
</radialGradient>
<radialGradient id="paint1_radial_103_677" cx="0" cy="0" r="1" gradientUnits="userSpaceOnUse" gradientTransform="translate(9.8217 4.61695) scale(24.8442 16.5537)">
<stop stop-color="#4168C9"/>
<stop offset="0.999" stop-color="#4168C9" stop-opacity="0"/>
</radialGradient>
</defs>
</svg>
