<svg width="40" height="40" viewBox="0 0 40 40" fill="none" xmlns="http://www.w3.org/2000/svg">
<path d="M4.05664 36.0859L6.30164 27.8901C4.91664 25.4917 4.18831 22.7701 4.18914 19.9826C4.19331 11.2617 11.29 4.16675 20.0116 4.16675C24.2441 4.16841 28.2158 5.81591 31.2033 8.80508C34.19 11.7951 35.835 15.7684 35.8333 19.9951C35.83 28.7159 28.7316 35.8117 20.0116 35.8117H20.005C17.3575 35.8109 14.755 35.1467 12.4441 33.8859L4.05664 36.0859Z" fill="white"/>
<path d="M4.05668 36.5025C3.94668 36.5025 3.84002 36.4592 3.76085 36.3792C3.65668 36.2733 3.61585 36.1192 3.65502 35.9767L5.85418 27.9467C4.49085 25.525 3.77168 22.775 3.77335 19.9833C3.77668 11.0317 11.0609 3.75 20.0117 3.75C24.3534 3.75167 28.4325 5.4425 31.4984 8.51083C34.5642 11.58 36.2517 15.6583 36.25 19.995C36.2467 28.9458 28.9617 36.2283 20.0117 36.2283C17.3542 36.2275 14.725 35.5717 12.3917 34.3308L4.16252 36.4883C4.12752 36.4983 4.09252 36.5025 4.05668 36.5025Z" fill="white"/>
<path d="M20.0116 4.16659C24.2441 4.16825 28.2157 5.81575 31.2032 8.80492C34.1899 11.7949 35.8349 15.7683 35.8332 19.9949C35.8299 28.7158 28.7316 35.8116 20.0116 35.8116H20.0049C17.3574 35.8107 14.7549 35.1466 12.4441 33.8857L4.05658 36.0858L6.30158 27.8899C4.91658 25.4916 4.18824 22.7699 4.18908 19.9824C4.19324 11.2616 11.2899 4.16659 20.0116 4.16659ZM20.0116 3.33325C10.8316 3.33325 3.35991 10.8016 3.35574 19.9824C3.35491 22.7883 4.06324 25.5533 5.40658 28.0008L3.25241 35.8666C3.17408 36.1541 3.25408 36.4608 3.46408 36.6724C3.62241 36.8324 3.83658 36.9199 4.05658 36.9199C4.12741 36.9199 4.19824 36.9108 4.26824 36.8924L12.3407 34.7758C14.6974 35.9991 17.3391 36.6449 20.0049 36.6457C29.1916 36.6457 36.6632 29.1766 36.6674 19.9958C36.6691 15.5466 34.9382 11.3633 31.7941 8.21658C28.6482 5.06909 24.4641 3.33492 20.0116 3.33325Z" fill="#CFD8DC"/>
<path d="M29.3134 10.6934C26.8301 8.20838 23.5293 6.83921 20.0159 6.83838C12.7626 6.83838 6.86344 12.735 6.86011 19.9834C6.85927 22.4675 7.55427 24.8859 8.87094 26.98L9.18427 27.4775L7.85511 32.3284L12.8326 31.0234L13.3134 31.3084C15.3318 32.5067 17.6468 33.14 20.0068 33.1409H20.0118C27.2601 33.1409 33.1593 27.2434 33.1618 19.9942C33.1626 16.4817 31.7968 13.1784 29.3134 10.6934Z" fill="#40C351"/>
<path fill-rule="evenodd" clip-rule="evenodd" d="M16.0568 13.3707C15.7609 12.7124 15.4493 12.6991 15.1668 12.6874C14.9359 12.6774 14.6726 12.6782 14.4093 12.6782C14.1459 12.6782 13.7176 12.7774 13.3551 13.1732C12.9926 13.5691 11.9709 14.5249 11.9709 16.4699C11.9709 18.4149 13.3876 20.2949 13.5851 20.5582C13.7826 20.8216 16.3201 24.9407 20.3384 26.5257C23.6776 27.8424 24.3576 27.5807 25.0826 27.5149C25.8076 27.4491 27.4218 26.5591 27.7509 25.6357C28.0801 24.7124 28.0801 23.9216 27.9818 23.7566C27.8826 23.5916 27.6193 23.4932 27.2243 23.2949C26.8293 23.0966 24.8851 22.1407 24.5226 22.0091C24.1601 21.8774 23.8968 21.8116 23.6326 22.2074C23.3693 22.6024 22.6118 23.4932 22.3809 23.7566C22.1501 24.0207 21.9193 24.0541 21.5243 23.8557C21.1293 23.6574 19.8559 23.2407 18.3451 21.8941C17.1701 20.8466 16.3768 19.5524 16.1459 19.1566C15.9151 18.7616 16.1209 18.5474 16.3193 18.3499C16.4968 18.1724 16.7143 17.8882 16.9126 17.6574C17.1101 17.4266 17.1759 17.2616 17.3076 16.9982C17.4393 16.7341 17.3734 16.5032 17.2743 16.3057C17.1768 16.1074 16.4084 14.1524 16.0568 13.3707Z" fill="white"/>
</svg>
